<?xml version="1.0" encoding="iso-8859-1"?>
<!-- Generator: Adobe Illustrator 19.0.0, SVG Export Plug-In . SVG Version: 6.00 Build 0)  -->
<svg version="1.1" id="Capa_1" xmlns="http://www.w3.org/2000/svg" xmlns:xlink="http://www.w3.org/1999/xlink" x="0px" y="0px"
	 viewBox="0 0 512.002 512.002" style="enable-background:new 0 0 512.002 512.002;" xml:space="preserve">
<path style="fill:#FFC261;" d="M425.695,142.272c-2.122,13.674-13.17,23.742-26.293,25.211c0.817,3.59,0.991,7.389,0.392,11.249
	c-2.541,16.373-17.875,27.586-34.25,25.045c-15.255-2.367-26.026-15.836-25.374-30.905c-5.524,2.955-12.015,4.213-18.684,3.19
	c-3.487-0.535-6.738-1.654-9.676-3.236c-0.055,0.572-0.122,1.145-0.21,1.72c-2.513,16.377-17.828,27.617-34.207,25.104
	c-9.717-1.49-17.625-7.486-21.926-15.536c0.518,11.09-5.164,22.038-15.558,27.731c-14.533,7.961-32.768,2.634-40.73-11.896
	c-5.015-9.154-4.753-19.774-0.242-28.373c-0.515-0.044-1.027-0.108-1.538-0.179c-6.843,2.808-14.406,2.938-21.219,0.581
	c0.626,9.689-3.451,19.5-11.755,25.825c-13.181,10.041-32.008,7.498-42.05-5.682c-0.727-0.955-1.365-1.948-1.961-2.956
	c-4.342-0.057-8.739-1.06-12.891-3.114c-9.356-4.629-15.227-13.484-16.457-23.115c-8.404,4.864-19.006,5.568-28.362,0.939
	c-14.852-7.348-20.934-25.344-13.584-40.193c6.138-12.402,19.703-18.681,32.661-16.135c0.301-3.669,1.278-7.345,3.011-10.845
	c7.35-14.85,25.347-20.931,40.199-13.583c7.316,3.62,12.498,9.825,15.001,16.963c7.388,0.517,14.552,3.746,19.877,9.479
	c1.281-7.541,5.4-14.456,11.693-19.116c-2.509-2.695-4.567-5.893-5.987-9.531c-6.023-15.435,1.608-32.83,17.045-38.853
	c8.965-3.498,18.587-2.383,26.263,2.183c0.088-0.187,0.169-0.376,0.261-0.562c6.138-12.402,19.703-18.681,32.661-16.135
	c0.301-3.669,1.278-7.345,3.011-10.845c7.35-14.85,25.347-20.931,40.199-13.583c14.852,7.349,20.934,25.344,13.584,40.194
	c-1.565,3.161-3.615,5.92-6.012,8.242c0.529,0.225,1.055,0.462,1.576,0.72c5.46,2.702,9.729,6.845,12.587,11.739
	c6.882-5.771,16.118-8.226,25.068-6.467c0.301-3.669,1.278-7.345,3.011-10.845c7.35-14.85,25.347-20.931,40.199-13.583
	c14.852,7.349,20.934,25.344,13.584,40.194c-1.565,3.161-3.615,5.92-6.012,8.242c0.529,0.225,1.055,0.462,1.576,0.72
	c10.216,5.055,16.282,15.147,16.682,25.789C417.115,110.704,428.225,125.97,425.695,142.272z"/>
<path style="fill:#FFDB8B;" d="M307.745,92.469c-0.526,1.062-1.111,2.073-1.741,3.043c-3.495-2.301-7.522-3.915-11.929-4.591
	c-11.462-1.758-22.396,3.223-28.793,11.981c1.263-5.624,0.942-11.667-1.311-17.44c-6.023-15.435-23.421-23.065-38.858-17.043
	c-0.542,0.211-1.072,0.44-1.594,0.679c-0.101-3.335-0.759-6.709-2.041-9.995c-2.525-6.471-7.054-11.563-12.596-14.86
	c0.088-0.187,0.169-0.376,0.261-0.562c6.138-12.402,19.703-18.681,32.661-16.135c0.301-3.669,1.278-7.345,3.011-10.845
	c7.35-14.85,25.347-20.931,40.199-13.583c14.852,7.349,20.934,25.344,13.584,40.194c-1.565,3.161-3.615,5.92-6.012,8.242
	c0.529,0.225,1.055,0.462,1.576,0.72C309.012,59.625,315.094,77.62,307.745,92.469z M259.868,116.026
	c0.127-0.83,0.296-1.643,0.488-2.446c-8.64-4.629-19.37-4.944-28.608,0.116c-3.426,1.876-6.333,4.329-8.682,7.164
	c-9.161-9.509-23.876-12.134-36.014-5.486c-14.533,7.96-19.86,26.193-11.899,40.724c5.015,9.154,14.108,14.65,23.784,15.478
	c-4.511,8.599-4.773,19.219,0.242,28.373c7.962,14.531,26.197,19.857,40.73,11.896c10.394-5.693,16.076-16.641,15.558-27.731
	c-2.055-3.846-3.286-8.162-3.498-12.679c-0.056-0.104-0.105-0.21-0.162-0.314c-0.28-0.51-0.575-1.006-0.879-1.493
	c0.341-0.055,0.681-0.119,1.021-0.186c0.026-1.32,0.131-2.653,0.336-3.995c1.583-10.316,8.248-18.59,17.057-22.676
	C262.163,136.233,258.285,126.343,259.868,116.026z"/>
<path style="fill:#F3B05F;" d="M197.398,171.397c-6.843,2.808-14.406,2.938-21.219,0.581c0.626,9.689-3.451,19.5-11.755,25.825
	c-13.181,10.041-32.008,7.498-42.05-5.682c-8.387-11.007-7.989-25.948,0.047-36.425c-3.155-1.899-6.014-4.407-8.381-7.514
	c-10.043-13.179-7.499-32.003,5.682-42.044c12.388-9.438,29.762-7.756,40.144,3.421c-0.879,5.174-0.434,10.641,1.614,15.887
	c2.14,5.484,5.721,9.977,10.135,13.228c-0.593,5.831,0.508,11.894,3.537,17.422C179.901,164.765,188.306,170.146,197.398,171.397z
	 M384.173,82.276c-0.521-0.258-1.048-0.495-1.576-0.72c2.397-2.322,4.447-5.081,6.012-8.242c7.35-14.85,1.268-32.845-13.584-40.194
	c-14.852-7.348-32.85-1.267-40.199,13.583c-1.732,3.5-2.71,7.176-3.011,10.845c-12.957-2.546-26.522,3.732-32.661,16.135
	c-2.818,5.694-3.655,11.85-2.786,17.691c-0.754-0.176-1.516-0.332-2.294-0.451c-16.379-2.512-31.694,8.727-34.207,25.104
	c-1.583,10.317,2.296,20.208,9.475,26.746c-8.809,4.086-15.475,12.36-17.057,22.676c-2.513,16.377,8.729,31.69,25.108,34.202
	s31.694-8.727,34.207-25.104c0.088-0.575,0.155-1.148,0.21-1.72c2.938,1.582,6.189,2.702,9.676,3.236
	c6.669,1.023,13.16-0.235,18.684-3.19c0.048-1.106,0.151-2.22,0.325-3.34c0.541-3.485,1.666-6.734,3.253-9.669
	c-0.572-0.056-1.145-0.124-1.72-0.213c-16.375-2.541-27.59-17.873-25.049-34.245c0.457-2.944,1.333-5.718,2.549-8.278
	c-0.064,0.014-0.13,0.025-0.194,0.04c-0.038-0.331-0.105-0.655-0.153-0.983c0.245,0.058,0.49,0.106,0.735,0.159
	c5.735-11.213,18.186-18.02,31.313-15.983c10.315,1.601,18.579,8.279,22.65,17.094c6.551-7.167,16.45-11.028,26.766-9.427
	c0.07,0.011,0.139,0.026,0.209,0.038C400.456,97.424,394.389,87.331,384.173,82.276z"/>
<path style="fill:#F2CF90;" d="M422.053,177.001v15v90l-48.295,222.125c-0.999,4.597-5.068,7.875-9.772,7.875H140.072
	c-4.704,0-8.772-3.279-9.772-7.875L82.005,282.001v-90v-15c0-13.646,10.934-24.738,24.52-24.995
	c14.015-0.266,25.487,11.544,25.487,25.562v3.182c0,6.214,5.038,11.252,11.252,11.252l0,0c6.214,0,11.252-5.038,11.252-11.252
	v-3.749c0-13.646,10.934-24.738,24.52-24.995c14.015-0.266,25.487,11.544,25.487,25.562v3.182c0,6.214,5.038,11.252,11.252,11.252
	l0,0c6.214,0,11.252-5.038,11.252-11.252v-3.749c0-13.646,10.934-24.738,24.52-24.995c14.015-0.266,25.487,11.544,25.487,25.562
	v3.182c0,6.214,5.038,11.252,11.252,11.252l0,0c6.214,0,11.252-5.038,11.252-11.252v-3.749c0-13.646,10.934-24.738,24.52-24.995
	c14.015-0.266,25.487,11.544,25.487,25.562v3.182c0,6.214,5.037,11.252,11.252,11.252l0,0c6.214,0,11.252-5.038,11.252-11.252
	v-3.182c0-14.018,11.472-25.828,25.487-25.562C411.119,152.263,422.053,163.355,422.053,177.001z"/>
<path style="fill:#E3B27C;" d="M130.3,504.126L82.005,282.001h340.048l-48.295,222.125c-0.999,4.597-5.068,7.875-9.772,7.875
	H140.072C135.367,512.001,131.299,508.722,130.3,504.126z"/>
<path style="fill:#EE5B55;" d="M146.014,312.001l35.189,200h-41.131c-4.704,0-8.772-3.279-9.772-7.875L82.005,282.001v-90v-15
	c0-13.646,10.934-24.738,24.52-24.996c14.015-0.266,25.487,11.544,25.487,25.562v3.182c0,6.214,5.037,11.251,11.252,11.251
	c0.951,0,1.869-0.131,2.75-0.353v90.354L146.014,312.001L146.014,312.001z M277.033,180.75v-3.182
	c0-14.018-11.472-25.828-25.487-25.562c-13.586,0.258-24.52,11.35-24.52,24.996v3.749c0,6.129-4.904,11.104-11.002,11.239v90.011v30
	l11.493,200h46.537l11.979-200v-30v-90.226C280.898,190.732,277.033,186.193,277.033,180.75z M397.533,152.005
	c-14.015-0.266-25.487,11.544-25.487,25.562v3.182c0,6.214-5.038,11.251-11.252,11.251l0,0c-1.7,0-3.306-0.388-4.751-1.063v91.064
	v30l-36.375,200h44.318c4.704,0,8.772-3.279,9.772-7.875l48.295-222.125v-90v-15C422.053,163.356,411.119,152.263,397.533,152.005z"
	/>
<g>
	<path style="fill:#DC5B4D;" d="M170.738,512.001h-30.667c-4.704,0-8.772-3.279-9.772-7.875L82.005,282.001v-90v-15
		c0-13.646,10.934-24.738,24.52-24.996c5.903-0.112,11.35,1.924,15.683,5.359c-5.806,4.578-9.537,11.67-9.537,19.637v15v90
		l48.295,222.125C161.966,508.722,166.034,512.001,170.738,512.001z"/>
	<path style="fill:#DC5B4D;" d="M422.053,282.001l-48.295,222.125c-0.999,4.597-5.068,7.875-9.772,7.875h-44.318l36.375-200v-30
		H422.053z M146.014,282.001H82.005L130.3,504.126c0.999,4.597,5.068,7.875,9.772,7.875h41.131l-35.189-200V282.001z
		 M216.024,312.001l11.493,200h46.537l11.979-200v-30h-70.01v30H216.024z"/>
</g>
<path style="fill:#C35243;" d="M170.072,512.001h-30c-4.704,0-8.772-3.279-9.772-7.875L82.005,282.001h30L160.3,504.126
	C161.299,508.722,165.367,512.001,170.072,512.001z"/>
<path style="fill:#FFC261;" d="M465.963,483.477c-0.815,16.548-14.894,29.303-31.444,28.487
	c-10.426-0.514-19.342-6.292-24.313-14.633c-5.766,7.812-15.208,12.686-25.634,12.173c-16.551-0.815-29.307-14.891-28.491-31.44
	c0.681-13.821,10.616-24.988,23.513-27.822c-1.188-3.485-1.758-7.245-1.566-11.146c0.815-16.548,14.894-29.303,31.444-28.487
	c16.551,0.815,29.307,14.891,28.491,31.44c-0.174,3.523-0.953,6.871-2.225,9.956c0.574-0.004,1.152,0.003,1.733,0.032
	C454.022,452.852,466.778,466.928,465.963,483.477z"/>
<g>
</g>
<g>
</g>
<g>
</g>
<g>
</g>
<g>
</g>
<g>
</g>
<g>
</g>
<g>
</g>
<g>
</g>
<g>
</g>
<g>
</g>
<g>
</g>
<g>
</g>
<g>
</g>
<g>
</g>
</svg>
